<mxfile host="app.diagrams.net" modified="2023-08-02T07:06:00.357Z" agent="Mozilla/5.0 (Windows NT 10.0; Win64; x64) AppleWebKit/537.36 (KHTML, like Gecko) Chrome/114.0.0.0 Safari/537.36 OPR/100.0.0.0 (Edition Yx 05)" etag="hJwydanE1JYZ8XwGyjdM" version="21.6.6" type="device">
  <diagram name="Страница 1" id="E0bzcuXorQ1ap5C7ma62">
    <mxGraphModel dx="7061" dy="6097" grid="1" gridSize="10" guides="1" tooltips="1" connect="1" arrows="1" fold="1" page="1" pageScale="1" pageWidth="827" pageHeight="1169" math="0" shadow="0">
      <root>
        <mxCell id="0" />
        <mxCell id="1" parent="0" />
        <mxCell id="mTnZ1Y2PA8hC00HLISH9-3" value="&lt;font style=&quot;font-size: 33px;&quot;&gt;Tricentis&lt;/font&gt;" style="rounded=1;whiteSpace=wrap;html=1;" parent="1" vertex="1">
          <mxGeometry x="-1010" y="-1900" width="270" height="110" as="geometry" />
        </mxCell>
        <mxCell id="mTnZ1Y2PA8hC00HLISH9-4" value="" style="endArrow=classic;html=1;rounded=0;" parent="1" edge="1">
          <mxGeometry width="50" height="50" relative="1" as="geometry">
            <mxPoint x="-740" y="-1840.71" as="sourcePoint" />
            <mxPoint x="-540" y="-1840.71" as="targetPoint" />
          </mxGeometry>
        </mxCell>
        <mxCell id="mTnZ1Y2PA8hC00HLISH9-6" value="" style="endArrow=classic;html=1;rounded=0;" parent="1" edge="1">
          <mxGeometry width="50" height="50" relative="1" as="geometry">
            <mxPoint x="-740" y="-1800" as="sourcePoint" />
            <mxPoint x="-510" y="-1688.75" as="targetPoint" />
            <Array as="points">
              <mxPoint x="-530" y="-1690" />
            </Array>
          </mxGeometry>
        </mxCell>
        <mxCell id="mTnZ1Y2PA8hC00HLISH9-8" value="" style="endArrow=classic;html=1;rounded=0;entryX=0;entryY=0.5;entryDx=0;entryDy=0;" parent="1" target="mTnZ1Y2PA8hC00HLISH9-88" edge="1">
          <mxGeometry width="50" height="50" relative="1" as="geometry">
            <mxPoint x="-750" y="-1890" as="sourcePoint" />
            <mxPoint x="-550" y="-2010" as="targetPoint" />
          </mxGeometry>
        </mxCell>
        <mxCell id="mTnZ1Y2PA8hC00HLISH9-10" value="" style="endArrow=classic;html=1;rounded=0;entryX=1.009;entryY=0.454;entryDx=0;entryDy=0;entryPerimeter=0;" parent="1" source="mTnZ1Y2PA8hC00HLISH9-3" target="mTnZ1Y2PA8hC00HLISH9-12" edge="1">
          <mxGeometry width="50" height="50" relative="1" as="geometry">
            <mxPoint x="-990" y="-1890" as="sourcePoint" />
            <mxPoint x="-1730" y="-2326" as="targetPoint" />
          </mxGeometry>
        </mxCell>
        <mxCell id="mTnZ1Y2PA8hC00HLISH9-12" value="&lt;span style=&quot;font-size: 30px;&quot;&gt;CATEGORIES&lt;/span&gt;" style="rounded=1;whiteSpace=wrap;html=1;" parent="1" vertex="1">
          <mxGeometry x="-2100" y="-2430" width="260" height="230" as="geometry" />
        </mxCell>
        <mxCell id="mTnZ1Y2PA8hC00HLISH9-14" value="" style="endArrow=classic;html=1;rounded=0;entryX=0.5;entryY=0;entryDx=0;entryDy=0;exitX=-0.003;exitY=0.871;exitDx=0;exitDy=0;exitPerimeter=0;" parent="1" source="mTnZ1Y2PA8hC00HLISH9-12" target="mTnZ1Y2PA8hC00HLISH9-33" edge="1">
          <mxGeometry width="50" height="50" relative="1" as="geometry">
            <mxPoint x="-2101.4300000000003" y="-2220" as="sourcePoint" />
            <mxPoint x="-2210" y="-2050" as="targetPoint" />
          </mxGeometry>
        </mxCell>
        <mxCell id="mTnZ1Y2PA8hC00HLISH9-15" value="" style="endArrow=classic;html=1;rounded=0;entryX=0.5;entryY=1;entryDx=0;entryDy=0;exitX=0.015;exitY=0.079;exitDx=0;exitDy=0;exitPerimeter=0;" parent="1" source="mTnZ1Y2PA8hC00HLISH9-12" target="mTnZ1Y2PA8hC00HLISH9-32" edge="1">
          <mxGeometry width="50" height="50" relative="1" as="geometry">
            <mxPoint x="-2140" y="-2488" as="sourcePoint" />
            <mxPoint x="-2240" y="-2338" as="targetPoint" />
          </mxGeometry>
        </mxCell>
        <mxCell id="mTnZ1Y2PA8hC00HLISH9-16" value="" style="endArrow=classic;html=1;rounded=0;entryX=0.5;entryY=1;entryDx=0;entryDy=0;" parent="1" source="mTnZ1Y2PA8hC00HLISH9-12" target="mTnZ1Y2PA8hC00HLISH9-31" edge="1">
          <mxGeometry width="50" height="50" relative="1" as="geometry">
            <mxPoint x="-2030" y="-2680" as="sourcePoint" />
            <mxPoint x="-2090" y="-2530" as="targetPoint" />
          </mxGeometry>
        </mxCell>
        <mxCell id="mTnZ1Y2PA8hC00HLISH9-17" value="" style="endArrow=classic;html=1;rounded=0;entryX=0.383;entryY=-0.062;entryDx=0;entryDy=0;entryPerimeter=0;exitX=0.134;exitY=1.016;exitDx=0;exitDy=0;exitPerimeter=0;" parent="1" source="mTnZ1Y2PA8hC00HLISH9-12" target="mTnZ1Y2PA8hC00HLISH9-29" edge="1">
          <mxGeometry width="50" height="50" relative="1" as="geometry">
            <mxPoint x="-1940" y="-2200" as="sourcePoint" />
            <mxPoint x="-1940" y="-2010" as="targetPoint" />
          </mxGeometry>
        </mxCell>
        <mxCell id="mTnZ1Y2PA8hC00HLISH9-18" value="" style="endArrow=classic;html=1;rounded=0;entryX=0.383;entryY=-0.062;entryDx=0;entryDy=0;entryPerimeter=0;" parent="1" source="mTnZ1Y2PA8hC00HLISH9-12" target="mTnZ1Y2PA8hC00HLISH9-27" edge="1">
          <mxGeometry width="50" height="50" relative="1" as="geometry">
            <mxPoint x="-1840" y="-2233" as="sourcePoint" />
            <mxPoint x="-1840" y="-2043" as="targetPoint" />
          </mxGeometry>
        </mxCell>
        <mxCell id="mTnZ1Y2PA8hC00HLISH9-20" value="" style="endArrow=classic;html=1;rounded=0;entryX=0.383;entryY=-0.086;entryDx=0;entryDy=0;entryPerimeter=0;exitX=0.433;exitY=1.007;exitDx=0;exitDy=0;exitPerimeter=0;" parent="1" source="mTnZ1Y2PA8hC00HLISH9-12" target="mTnZ1Y2PA8hC00HLISH9-28" edge="1">
          <mxGeometry width="50" height="50" relative="1" as="geometry">
            <mxPoint x="-1890" y="-2200" as="sourcePoint" />
            <mxPoint x="-1890" y="-2010" as="targetPoint" />
          </mxGeometry>
        </mxCell>
        <mxCell id="mTnZ1Y2PA8hC00HLISH9-26" value="&lt;font style=&quot;font-size: 20px;&quot;&gt;Gift Cards&lt;/font&gt;" style="rounded=0;whiteSpace=wrap;html=1;" parent="1" vertex="1">
          <mxGeometry x="-1815" y="-2040" width="120" height="60" as="geometry" />
        </mxCell>
        <mxCell id="mTnZ1Y2PA8hC00HLISH9-27" value="&lt;font style=&quot;font-size: 20px;&quot;&gt;Jewelry&lt;br&gt;&lt;/font&gt;" style="rounded=0;whiteSpace=wrap;html=1;" parent="1" vertex="1">
          <mxGeometry x="-1945" y="-2040" width="120" height="60" as="geometry" />
        </mxCell>
        <mxCell id="mTnZ1Y2PA8hC00HLISH9-28" value="&lt;font style=&quot;font-size: 20px;&quot;&gt;Digital downloads&lt;/font&gt;" style="rounded=0;whiteSpace=wrap;html=1;" parent="1" vertex="1">
          <mxGeometry x="-2075" y="-2040" width="120" height="60" as="geometry" />
        </mxCell>
        <mxCell id="mTnZ1Y2PA8hC00HLISH9-29" value="&lt;font style=&quot;font-size: 20px;&quot;&gt;Apparel &amp;amp; Shoes&lt;/font&gt;" style="rounded=0;whiteSpace=wrap;html=1;" parent="1" vertex="1">
          <mxGeometry x="-2205" y="-2040" width="120" height="60" as="geometry" />
        </mxCell>
        <mxCell id="mTnZ1Y2PA8hC00HLISH9-161" value="" style="edgeStyle=orthogonalEdgeStyle;rounded=0;orthogonalLoop=1;jettySize=auto;html=1;" parent="1" source="mTnZ1Y2PA8hC00HLISH9-31" target="mTnZ1Y2PA8hC00HLISH9-160" edge="1">
          <mxGeometry relative="1" as="geometry">
            <Array as="points">
              <mxPoint x="-1890" y="-2600" />
              <mxPoint x="-1890" y="-2600" />
            </Array>
          </mxGeometry>
        </mxCell>
        <mxCell id="mTnZ1Y2PA8hC00HLISH9-163" value="" style="edgeStyle=orthogonalEdgeStyle;rounded=0;orthogonalLoop=1;jettySize=auto;html=1;" parent="1" source="mTnZ1Y2PA8hC00HLISH9-31" target="mTnZ1Y2PA8hC00HLISH9-162" edge="1">
          <mxGeometry relative="1" as="geometry">
            <Array as="points">
              <mxPoint x="-1750" y="-2600" />
              <mxPoint x="-1750" y="-2600" />
            </Array>
          </mxGeometry>
        </mxCell>
        <mxCell id="mTnZ1Y2PA8hC00HLISH9-31" value="&lt;font style=&quot;font-size: 20px;&quot;&gt;Electronics&lt;/font&gt;" style="rounded=0;whiteSpace=wrap;html=1;" parent="1" vertex="1">
          <mxGeometry x="-1950" y="-2580" width="290" height="60" as="geometry" />
        </mxCell>
        <mxCell id="mTnZ1Y2PA8hC00HLISH9-157" value="" style="edgeStyle=orthogonalEdgeStyle;rounded=0;orthogonalLoop=1;jettySize=auto;html=1;" parent="1" source="mTnZ1Y2PA8hC00HLISH9-32" target="mTnZ1Y2PA8hC00HLISH9-156" edge="1">
          <mxGeometry relative="1" as="geometry">
            <Array as="points">
              <mxPoint x="-2200" y="-2600" />
              <mxPoint x="-2200" y="-2600" />
            </Array>
          </mxGeometry>
        </mxCell>
        <mxCell id="mTnZ1Y2PA8hC00HLISH9-159" value="" style="edgeStyle=orthogonalEdgeStyle;rounded=0;orthogonalLoop=1;jettySize=auto;html=1;" parent="1" source="mTnZ1Y2PA8hC00HLISH9-32" target="mTnZ1Y2PA8hC00HLISH9-158" edge="1">
          <mxGeometry relative="1" as="geometry">
            <Array as="points">
              <mxPoint x="-2110" y="-2625" />
              <mxPoint x="-2050" y="-2625" />
            </Array>
          </mxGeometry>
        </mxCell>
        <mxCell id="mTnZ1Y2PA8hC00HLISH9-165" value="" style="edgeStyle=orthogonalEdgeStyle;rounded=0;orthogonalLoop=1;jettySize=auto;html=1;" parent="1" source="mTnZ1Y2PA8hC00HLISH9-32" target="mTnZ1Y2PA8hC00HLISH9-164" edge="1">
          <mxGeometry relative="1" as="geometry">
            <Array as="points">
              <mxPoint x="-2290" y="-2625" />
              <mxPoint x="-2350" y="-2625" />
            </Array>
          </mxGeometry>
        </mxCell>
        <mxCell id="mTnZ1Y2PA8hC00HLISH9-32" value="&lt;font style=&quot;font-size: 20px;&quot;&gt;Computers&lt;/font&gt;" style="rounded=0;whiteSpace=wrap;html=1;" parent="1" vertex="1">
          <mxGeometry x="-2320" y="-2580" width="290" height="60" as="geometry" />
        </mxCell>
        <mxCell id="mTnZ1Y2PA8hC00HLISH9-33" value="&lt;font style=&quot;font-size: 20px;&quot;&gt;Books&lt;/font&gt;" style="rounded=0;whiteSpace=wrap;html=1;" parent="1" vertex="1">
          <mxGeometry x="-2345" y="-2040" width="120" height="60" as="geometry" />
        </mxCell>
        <mxCell id="mTnZ1Y2PA8hC00HLISH9-34" value="" style="endArrow=classic;html=1;rounded=0;entryX=0.669;entryY=0.033;entryDx=0;entryDy=0;entryPerimeter=0;exitX=0.885;exitY=1;exitDx=0;exitDy=0;exitPerimeter=0;" parent="1" source="mTnZ1Y2PA8hC00HLISH9-12" target="mTnZ1Y2PA8hC00HLISH9-26" edge="1">
          <mxGeometry width="50" height="50" relative="1" as="geometry">
            <mxPoint x="-1840" y="-2270" as="sourcePoint" />
            <mxPoint x="-1684" y="-2091" as="targetPoint" />
          </mxGeometry>
        </mxCell>
        <mxCell id="mTnZ1Y2PA8hC00HLISH9-35" value="" style="endArrow=classic;html=1;rounded=0;entryX=1.009;entryY=0.454;entryDx=0;entryDy=0;entryPerimeter=0;exitX=0;exitY=0.5;exitDx=0;exitDy=0;" parent="1" source="mTnZ1Y2PA8hC00HLISH9-3" target="mTnZ1Y2PA8hC00HLISH9-36" edge="1">
          <mxGeometry width="50" height="50" relative="1" as="geometry">
            <mxPoint x="-740" y="-1212.31" as="sourcePoint" />
            <mxPoint x="-993.21" y="-1486" as="targetPoint" />
          </mxGeometry>
        </mxCell>
        <mxCell id="mTnZ1Y2PA8hC00HLISH9-36" value="&lt;font style=&quot;font-size: 30px;&quot;&gt;MANUFACTURERS&lt;/font&gt;" style="rounded=1;whiteSpace=wrap;html=1;" parent="1" vertex="1">
          <mxGeometry x="-2140" y="-1950" width="280" height="70" as="geometry" />
        </mxCell>
        <mxCell id="mTnZ1Y2PA8hC00HLISH9-37" value="" style="endArrow=classic;html=1;rounded=0;" parent="1" edge="1">
          <mxGeometry width="50" height="50" relative="1" as="geometry">
            <mxPoint x="-2010" y="-1880" as="sourcePoint" />
            <mxPoint x="-2010" y="-1810" as="targetPoint" />
          </mxGeometry>
        </mxCell>
        <mxCell id="mTnZ1Y2PA8hC00HLISH9-38" value="&lt;div style=&quot;text-align: left;&quot;&gt;&lt;font style=&quot;font-size: 20px;&quot; face=&quot;arial, helvetica, sans-serif&quot; color=&quot;#5c5b5b&quot;&gt;Tricettis&lt;/font&gt;&lt;/div&gt;" style="rounded=0;whiteSpace=wrap;html=1;" parent="1" vertex="1">
          <mxGeometry x="-2120" y="-1813" width="230" height="60" as="geometry" />
        </mxCell>
        <mxCell id="mTnZ1Y2PA8hC00HLISH9-39" value="" style="endArrow=classic;html=1;rounded=0;entryX=1.009;entryY=0.454;entryDx=0;entryDy=0;entryPerimeter=0;exitX=0;exitY=0.75;exitDx=0;exitDy=0;" parent="1" source="mTnZ1Y2PA8hC00HLISH9-3" target="mTnZ1Y2PA8hC00HLISH9-40" edge="1">
          <mxGeometry width="50" height="50" relative="1" as="geometry">
            <mxPoint x="-1030" y="-1555" as="sourcePoint" />
            <mxPoint x="-1013.21" y="-1196" as="targetPoint" />
          </mxGeometry>
        </mxCell>
        <mxCell id="mTnZ1Y2PA8hC00HLISH9-40" value="&lt;font style=&quot;font-size: 30px;&quot;&gt;POPULAR TAGS&lt;/font&gt;" style="rounded=1;whiteSpace=wrap;html=1;" parent="1" vertex="1">
          <mxGeometry x="-2160" y="-1660" width="280" height="70" as="geometry" />
        </mxCell>
        <mxCell id="mTnZ1Y2PA8hC00HLISH9-41" value="" style="endArrow=classic;html=1;rounded=0;" parent="1" edge="1">
          <mxGeometry width="50" height="50" relative="1" as="geometry">
            <mxPoint x="-2030" y="-1590" as="sourcePoint" />
            <mxPoint x="-2030" y="-1520" as="targetPoint" />
          </mxGeometry>
        </mxCell>
        <mxCell id="mTnZ1Y2PA8hC00HLISH9-42" value="&lt;div style=&quot;text-align: left;&quot;&gt;&lt;font style=&quot;font-size: 24px;&quot; face=&quot;arial, helvetica, sans-serif&quot; color=&quot;#5c5b5b&quot;&gt;//sometags//&lt;/font&gt;&lt;/div&gt;" style="rounded=0;whiteSpace=wrap;html=1;" parent="1" vertex="1">
          <mxGeometry x="-2140" y="-1523" width="230" height="60" as="geometry" />
        </mxCell>
        <mxCell id="mTnZ1Y2PA8hC00HLISH9-44" value="" style="endArrow=classic;html=1;rounded=0;exitX=0.929;exitY=1;exitDx=0;exitDy=0;exitPerimeter=0;entryX=1;entryY=0;entryDx=0;entryDy=0;" parent="1" source="mTnZ1Y2PA8hC00HLISH9-40" target="mTnZ1Y2PA8hC00HLISH9-133" edge="1">
          <mxGeometry width="50" height="50" relative="1" as="geometry">
            <mxPoint x="-1950" y="-1590" as="sourcePoint" />
            <mxPoint x="-1950" y="-1430" as="targetPoint" />
            <Array as="points">
              <mxPoint x="-1880" y="-1500" />
            </Array>
          </mxGeometry>
        </mxCell>
        <mxCell id="mTnZ1Y2PA8hC00HLISH9-49" value="" style="endArrow=classic;html=1;rounded=0;entryX=0.607;entryY=0;entryDx=0;entryDy=0;entryPerimeter=0;" parent="1" target="mTnZ1Y2PA8hC00HLISH9-52" edge="1">
          <mxGeometry width="50" height="50" relative="1" as="geometry">
            <mxPoint x="-1000" y="-1790" as="sourcePoint" />
            <mxPoint x="-1050" y="-1680" as="targetPoint" />
          </mxGeometry>
        </mxCell>
        <mxCell id="mTnZ1Y2PA8hC00HLISH9-51" value="&lt;font style=&quot;font-size: 20px;&quot;&gt;COMMUNITY POLL&lt;/font&gt;" style="rounded=1;whiteSpace=wrap;html=1;" parent="1" vertex="1">
          <mxGeometry x="-510" y="-1720" width="170" height="80" as="geometry" />
        </mxCell>
        <mxCell id="mTnZ1Y2PA8hC00HLISH9-52" value="&lt;font style=&quot;font-size: 20px;&quot;&gt;swinging ads block about TRICENTIS&lt;/font&gt;" style="shape=process;whiteSpace=wrap;html=1;backgroundOutline=1;" parent="1" vertex="1">
          <mxGeometry x="-1390" y="-1690" width="280" height="60" as="geometry" />
        </mxCell>
        <mxCell id="mTnZ1Y2PA8hC00HLISH9-55" value="" style="endArrow=classic;html=1;rounded=0;" parent="1" source="mTnZ1Y2PA8hC00HLISH9-3" edge="1">
          <mxGeometry width="50" height="50" relative="1" as="geometry">
            <mxPoint x="-1320" y="-1720" as="sourcePoint" />
            <mxPoint x="-1040" y="-1600" as="targetPoint" />
          </mxGeometry>
        </mxCell>
        <mxCell id="mTnZ1Y2PA8hC00HLISH9-56" value="&lt;font style=&quot;font-size: 20px;&quot;&gt;Welcoming block&lt;/font&gt;" style="rounded=1;whiteSpace=wrap;html=1;" parent="1" vertex="1">
          <mxGeometry x="-1120" y="-1600" width="120" height="60" as="geometry" />
        </mxCell>
        <mxCell id="mTnZ1Y2PA8hC00HLISH9-57" value="" style="endArrow=classic;html=1;rounded=0;" parent="1" edge="1">
          <mxGeometry width="50" height="50" relative="1" as="geometry">
            <mxPoint x="-862" y="-1790" as="sourcePoint" />
            <mxPoint x="-862" y="-1590" as="targetPoint" />
          </mxGeometry>
        </mxCell>
        <mxCell id="mTnZ1Y2PA8hC00HLISH9-58" value="&lt;font style=&quot;font-size: 20px;&quot;&gt;FEATURED PRODUCTS&lt;/font&gt;" style="rounded=1;whiteSpace=wrap;html=1;" parent="1" vertex="1">
          <mxGeometry x="-920" y="-1590" width="120" height="60" as="geometry" />
        </mxCell>
        <mxCell id="mTnZ1Y2PA8hC00HLISH9-72" value="" style="shape=table;startSize=0;container=1;collapsible=0;childLayout=tableLayout;fontSize=16;" parent="1" vertex="1">
          <mxGeometry x="-950" y="-1480" width="180" height="80" as="geometry" />
        </mxCell>
        <mxCell id="mTnZ1Y2PA8hC00HLISH9-73" value="" style="shape=tableRow;horizontal=0;startSize=0;swimlaneHead=0;swimlaneBody=0;strokeColor=inherit;top=0;left=0;bottom=0;right=0;collapsible=0;dropTarget=0;fillColor=none;points=[[0,0.5],[1,0.5]];portConstraint=eastwest;fontSize=16;" parent="mTnZ1Y2PA8hC00HLISH9-72" vertex="1">
          <mxGeometry width="180" height="40" as="geometry" />
        </mxCell>
        <mxCell id="mTnZ1Y2PA8hC00HLISH9-74" value="" style="shape=partialRectangle;html=1;whiteSpace=wrap;connectable=0;strokeColor=inherit;overflow=hidden;fillColor=none;top=0;left=0;bottom=0;right=0;pointerEvents=1;fontSize=16;" parent="mTnZ1Y2PA8hC00HLISH9-73" vertex="1">
          <mxGeometry width="60" height="40" as="geometry">
            <mxRectangle width="60" height="40" as="alternateBounds" />
          </mxGeometry>
        </mxCell>
        <mxCell id="mTnZ1Y2PA8hC00HLISH9-75" value="" style="shape=partialRectangle;html=1;whiteSpace=wrap;connectable=0;strokeColor=inherit;overflow=hidden;fillColor=none;top=0;left=0;bottom=0;right=0;pointerEvents=1;fontSize=16;" parent="mTnZ1Y2PA8hC00HLISH9-73" vertex="1">
          <mxGeometry x="60" width="60" height="40" as="geometry">
            <mxRectangle width="60" height="40" as="alternateBounds" />
          </mxGeometry>
        </mxCell>
        <mxCell id="mTnZ1Y2PA8hC00HLISH9-76" value="" style="shape=partialRectangle;html=1;whiteSpace=wrap;connectable=0;strokeColor=inherit;overflow=hidden;fillColor=none;top=0;left=0;bottom=0;right=0;pointerEvents=1;fontSize=16;" parent="mTnZ1Y2PA8hC00HLISH9-73" vertex="1">
          <mxGeometry x="120" width="60" height="40" as="geometry">
            <mxRectangle width="60" height="40" as="alternateBounds" />
          </mxGeometry>
        </mxCell>
        <mxCell id="mTnZ1Y2PA8hC00HLISH9-77" value="" style="shape=tableRow;horizontal=0;startSize=0;swimlaneHead=0;swimlaneBody=0;strokeColor=inherit;top=0;left=0;bottom=0;right=0;collapsible=0;dropTarget=0;fillColor=none;points=[[0,0.5],[1,0.5]];portConstraint=eastwest;fontSize=16;" parent="mTnZ1Y2PA8hC00HLISH9-72" vertex="1">
          <mxGeometry y="40" width="180" height="40" as="geometry" />
        </mxCell>
        <mxCell id="mTnZ1Y2PA8hC00HLISH9-78" value="" style="shape=partialRectangle;html=1;whiteSpace=wrap;connectable=0;strokeColor=inherit;overflow=hidden;fillColor=none;top=0;left=0;bottom=0;right=0;pointerEvents=1;fontSize=16;" parent="mTnZ1Y2PA8hC00HLISH9-77" vertex="1">
          <mxGeometry width="60" height="40" as="geometry">
            <mxRectangle width="60" height="40" as="alternateBounds" />
          </mxGeometry>
        </mxCell>
        <mxCell id="mTnZ1Y2PA8hC00HLISH9-79" value="" style="shape=partialRectangle;html=1;whiteSpace=wrap;connectable=0;strokeColor=inherit;overflow=hidden;fillColor=none;top=0;left=0;bottom=0;right=0;pointerEvents=1;fontSize=16;" parent="mTnZ1Y2PA8hC00HLISH9-77" vertex="1">
          <mxGeometry x="60" width="60" height="40" as="geometry">
            <mxRectangle width="60" height="40" as="alternateBounds" />
          </mxGeometry>
        </mxCell>
        <mxCell id="mTnZ1Y2PA8hC00HLISH9-80" value="" style="shape=partialRectangle;html=1;whiteSpace=wrap;connectable=0;strokeColor=inherit;overflow=hidden;fillColor=none;top=0;left=0;bottom=0;right=0;pointerEvents=1;fontSize=16;" parent="mTnZ1Y2PA8hC00HLISH9-77" vertex="1">
          <mxGeometry x="120" width="60" height="40" as="geometry">
            <mxRectangle width="60" height="40" as="alternateBounds" />
          </mxGeometry>
        </mxCell>
        <mxCell id="mTnZ1Y2PA8hC00HLISH9-86" value="" style="endArrow=classic;html=1;rounded=0;entryX=0.489;entryY=-0.061;entryDx=0;entryDy=0;entryPerimeter=0;exitX=0.476;exitY=1.049;exitDx=0;exitDy=0;exitPerimeter=0;" parent="1" source="mTnZ1Y2PA8hC00HLISH9-58" target="mTnZ1Y2PA8hC00HLISH9-73" edge="1">
          <mxGeometry width="50" height="50" relative="1" as="geometry">
            <mxPoint x="-1000" y="-1530" as="sourcePoint" />
            <mxPoint x="-950" y="-1580" as="targetPoint" />
          </mxGeometry>
        </mxCell>
        <mxCell id="mTnZ1Y2PA8hC00HLISH9-88" value="&lt;font style=&quot;font-size: 20px;&quot;&gt;NEWSLETTER&lt;/font&gt;" style="rounded=1;whiteSpace=wrap;html=1;" parent="1" vertex="1">
          <mxGeometry x="-550" y="-2210" width="170" height="60" as="geometry" />
        </mxCell>
        <mxCell id="mTnZ1Y2PA8hC00HLISH9-120" value="" style="edgeStyle=orthogonalEdgeStyle;rounded=0;orthogonalLoop=1;jettySize=auto;html=1;" parent="1" source="mTnZ1Y2PA8hC00HLISH9-89" target="mTnZ1Y2PA8hC00HLISH9-119" edge="1">
          <mxGeometry relative="1" as="geometry" />
        </mxCell>
        <mxCell id="mTnZ1Y2PA8hC00HLISH9-89" value="&lt;font style=&quot;font-size: 20px;&quot;&gt;RECENTLY VIEWED PRODUCTS&lt;/font&gt;" style="rounded=1;whiteSpace=wrap;html=1;" parent="1" vertex="1">
          <mxGeometry x="-540" y="-1890" width="180" height="100" as="geometry" />
        </mxCell>
        <mxCell id="mTnZ1Y2PA8hC00HLISH9-119" value="&lt;font style=&quot;font-size: 15px;&quot;&gt;TWO PRODUCTS&lt;/font&gt;" style="whiteSpace=wrap;html=1;rounded=1;" parent="1" vertex="1">
          <mxGeometry x="-320" y="-1870" width="120" height="60" as="geometry" />
        </mxCell>
        <mxCell id="mTnZ1Y2PA8hC00HLISH9-121" value="" style="endArrow=classic;html=1;rounded=0;" parent="1" edge="1">
          <mxGeometry width="50" height="50" relative="1" as="geometry">
            <mxPoint x="-440" y="-1640" as="sourcePoint" />
            <mxPoint x="-440" y="-1570" as="targetPoint" />
          </mxGeometry>
        </mxCell>
        <mxCell id="mTnZ1Y2PA8hC00HLISH9-123" value="" style="endArrow=classic;html=1;rounded=0;entryX=0.875;entryY=0.044;entryDx=0;entryDy=0;entryPerimeter=0;" parent="1" edge="1">
          <mxGeometry width="50" height="50" relative="1" as="geometry">
            <mxPoint x="-360" y="-1640" as="sourcePoint" />
            <mxPoint x="-348.75" y="-1477.3600000000001" as="targetPoint" />
            <Array as="points">
              <mxPoint x="-310" y="-1570" />
            </Array>
          </mxGeometry>
        </mxCell>
        <mxCell id="mTnZ1Y2PA8hC00HLISH9-125" value="" style="endArrow=classic;html=1;rounded=0;" parent="1" edge="1">
          <mxGeometry width="50" height="50" relative="1" as="geometry">
            <mxPoint x="-480" y="-2150" as="sourcePoint" />
            <mxPoint x="-480" y="-2120" as="targetPoint" />
          </mxGeometry>
        </mxCell>
        <mxCell id="mTnZ1Y2PA8hC00HLISH9-127" value="" style="endArrow=classic;html=1;rounded=0;entryX=0.9;entryY=-0.031;entryDx=0;entryDy=0;entryPerimeter=0;exitX=1.01;exitY=0.672;exitDx=0;exitDy=0;exitPerimeter=0;" parent="1" source="mTnZ1Y2PA8hC00HLISH9-88" edge="1">
          <mxGeometry width="50" height="50" relative="1" as="geometry">
            <mxPoint x="-330" y="-2185.98" as="sourcePoint" />
            <mxPoint x="-373" y="-2031.8600000000001" as="targetPoint" />
            <Array as="points">
              <mxPoint x="-330" y="-2120" />
            </Array>
          </mxGeometry>
        </mxCell>
        <mxCell id="mTnZ1Y2PA8hC00HLISH9-129" value="&lt;font style=&quot;font-size: 19px;&quot;&gt;//someoptions//&lt;/font&gt;" style="shape=parallelogram;perimeter=parallelogramPerimeter;whiteSpace=wrap;html=1;fixedSize=1;" parent="1" vertex="1">
          <mxGeometry x="-550" y="-1570" width="220" height="60" as="geometry" />
        </mxCell>
        <mxCell id="mTnZ1Y2PA8hC00HLISH9-132" value="&lt;font style=&quot;font-size: 19px;&quot;&gt;Enter_email&lt;/font&gt;" style="shape=parallelogram;perimeter=parallelogramPerimeter;whiteSpace=wrap;html=1;fixedSize=1;" parent="1" vertex="1">
          <mxGeometry x="-580" y="-2120" width="220" height="60" as="geometry" />
        </mxCell>
        <mxCell id="mTnZ1Y2PA8hC00HLISH9-133" value="&lt;font style=&quot;font-size: 20px;&quot;&gt;View_all_btn&lt;/font&gt;" style="ellipse;whiteSpace=wrap;html=1;" parent="1" vertex="1">
          <mxGeometry x="-2047" y="-1430" width="154" height="80" as="geometry" />
        </mxCell>
        <mxCell id="mTnZ1Y2PA8hC00HLISH9-134" value="&lt;font style=&quot;font-size: 20px;&quot;&gt;VOTE_btn&lt;/font&gt;" style="ellipse;whiteSpace=wrap;html=1;" parent="1" vertex="1">
          <mxGeometry x="-420" y="-1480" width="120" height="80" as="geometry" />
        </mxCell>
        <mxCell id="mTnZ1Y2PA8hC00HLISH9-135" value="&lt;font style=&quot;font-size: 20px;&quot;&gt;SBSCRB_btn&lt;/font&gt;" style="ellipse;whiteSpace=wrap;html=1;" parent="1" vertex="1">
          <mxGeometry x="-498" y="-2040" width="170" height="80" as="geometry" />
        </mxCell>
        <mxCell id="mTnZ1Y2PA8hC00HLISH9-136" value="&lt;font style=&quot;font-size: 16px;&quot;&gt;DOT_btn&lt;/font&gt;" style="ellipse;whiteSpace=wrap;html=1;" parent="1" vertex="1">
          <mxGeometry x="-1370" y="-1603" width="80" height="80" as="geometry" />
        </mxCell>
        <mxCell id="mTnZ1Y2PA8hC00HLISH9-137" value="&lt;font style=&quot;font-size: 16px;&quot;&gt;DOT_btn&lt;/font&gt;" style="ellipse;whiteSpace=wrap;html=1;" parent="1" vertex="1">
          <mxGeometry x="-1270" y="-1600" width="80" height="80" as="geometry" />
        </mxCell>
        <mxCell id="mTnZ1Y2PA8hC00HLISH9-138" value="" style="endArrow=classic;html=1;rounded=0;entryX=0.5;entryY=0;entryDx=0;entryDy=0;exitX=0.578;exitY=1.002;exitDx=0;exitDy=0;exitPerimeter=0;" parent="1" source="mTnZ1Y2PA8hC00HLISH9-52" target="mTnZ1Y2PA8hC00HLISH9-137" edge="1">
          <mxGeometry width="50" height="50" relative="1" as="geometry">
            <mxPoint x="-1370" y="-1590" as="sourcePoint" />
            <mxPoint x="-1320" y="-1640" as="targetPoint" />
          </mxGeometry>
        </mxCell>
        <mxCell id="mTnZ1Y2PA8hC00HLISH9-139" value="" style="endArrow=classic;html=1;rounded=0;entryX=0.5;entryY=0;entryDx=0;entryDy=0;exitX=0.218;exitY=1.009;exitDx=0;exitDy=0;exitPerimeter=0;" parent="1" source="mTnZ1Y2PA8hC00HLISH9-52" edge="1">
          <mxGeometry width="50" height="50" relative="1" as="geometry">
            <mxPoint x="-1329" y="-1628" as="sourcePoint" />
            <mxPoint x="-1331" y="-1603" as="targetPoint" />
          </mxGeometry>
        </mxCell>
        <mxCell id="mTnZ1Y2PA8hC00HLISH9-140" value="" style="endArrow=classic;html=1;rounded=0;exitX=0.199;exitY=0.01;exitDx=0;exitDy=0;exitPerimeter=0;" parent="1" source="mTnZ1Y2PA8hC00HLISH9-3" edge="1">
          <mxGeometry width="50" height="50" relative="1" as="geometry">
            <mxPoint x="-1040" y="-2030" as="sourcePoint" />
            <mxPoint x="-1400" y="-2300" as="targetPoint" />
          </mxGeometry>
        </mxCell>
        <mxCell id="mTnZ1Y2PA8hC00HLISH9-141" value="&lt;font style=&quot;font-size: 20px;&quot;&gt;BTN_redirect_to_&lt;br&gt;the_main_page&lt;/font&gt;" style="ellipse;shape=doubleEllipse;whiteSpace=wrap;html=1;aspect=fixed;" parent="1" vertex="1">
          <mxGeometry x="-1570" y="-2470" width="200" height="200" as="geometry" />
        </mxCell>
        <mxCell id="mTnZ1Y2PA8hC00HLISH9-142" value="" style="endArrow=classic;html=1;rounded=0;exitX=0.397;exitY=-0.006;exitDx=0;exitDy=0;exitPerimeter=0;" parent="1" source="mTnZ1Y2PA8hC00HLISH9-3" edge="1">
          <mxGeometry width="50" height="50" relative="1" as="geometry">
            <mxPoint x="-540" y="-2010" as="sourcePoint" />
            <mxPoint x="-900" y="-2220" as="targetPoint" />
          </mxGeometry>
        </mxCell>
        <mxCell id="mTnZ1Y2PA8hC00HLISH9-143" value="&lt;font style=&quot;font-size: 23px;&quot;&gt;USER action panel&lt;/font&gt;" style="rounded=1;whiteSpace=wrap;html=1;" parent="1" vertex="1">
          <mxGeometry x="-1010" y="-2280" width="210" height="60" as="geometry" />
        </mxCell>
        <mxCell id="mTnZ1Y2PA8hC00HLISH9-144" value="" style="endArrow=classic;html=1;rounded=0;exitX=0.05;exitY=0.037;exitDx=0;exitDy=0;exitPerimeter=0;" parent="1" source="mTnZ1Y2PA8hC00HLISH9-143" target="mTnZ1Y2PA8hC00HLISH9-145" edge="1">
          <mxGeometry width="50" height="50" relative="1" as="geometry">
            <mxPoint x="-1010" y="-2360" as="sourcePoint" />
            <mxPoint x="-1110" y="-2430" as="targetPoint" />
          </mxGeometry>
        </mxCell>
        <mxCell id="mTnZ1Y2PA8hC00HLISH9-145" value="&lt;font style=&quot;font-size: 20px;&quot;&gt;LOG IN&lt;/font&gt;" style="rounded=0;whiteSpace=wrap;html=1;" parent="1" vertex="1">
          <mxGeometry x="-1290" y="-2460" width="240" height="60" as="geometry" />
        </mxCell>
        <mxCell id="mTnZ1Y2PA8hC00HLISH9-148" value="" style="endArrow=classic;html=1;rounded=0;exitX=0.427;exitY=-0.05;exitDx=0;exitDy=0;exitPerimeter=0;" parent="1" source="mTnZ1Y2PA8hC00HLISH9-143" target="mTnZ1Y2PA8hC00HLISH9-149" edge="1">
          <mxGeometry width="50" height="50" relative="1" as="geometry">
            <mxPoint x="-950" y="-2364" as="sourcePoint" />
            <mxPoint x="-1056" y="-2510" as="targetPoint" />
          </mxGeometry>
        </mxCell>
        <mxCell id="mTnZ1Y2PA8hC00HLISH9-149" value="&lt;font style=&quot;font-size: 19px;&quot;&gt;Register&lt;/font&gt;" style="rounded=0;whiteSpace=wrap;html=1;" parent="1" vertex="1">
          <mxGeometry x="-1180" y="-2540" width="260" height="60" as="geometry" />
        </mxCell>
        <mxCell id="mTnZ1Y2PA8hC00HLISH9-150" value="" style="endArrow=classic;html=1;rounded=0;exitX=0.5;exitY=0;exitDx=0;exitDy=0;" parent="1" source="mTnZ1Y2PA8hC00HLISH9-143" target="mTnZ1Y2PA8hC00HLISH9-151" edge="1">
          <mxGeometry width="50" height="50" relative="1" as="geometry">
            <mxPoint x="-800" y="-2294" as="sourcePoint" />
            <mxPoint x="-906" y="-2440" as="targetPoint" />
          </mxGeometry>
        </mxCell>
        <mxCell id="mTnZ1Y2PA8hC00HLISH9-151" value="&lt;font style=&quot;font-size: 20px;&quot;&gt;Shopping Cart&lt;/font&gt;" style="rounded=0;whiteSpace=wrap;html=1;" parent="1" vertex="1">
          <mxGeometry x="-966" y="-2470" width="246" height="60" as="geometry" />
        </mxCell>
        <mxCell id="mTnZ1Y2PA8hC00HLISH9-152" value="" style="endArrow=classic;html=1;rounded=0;exitX=0.75;exitY=0;exitDx=0;exitDy=0;" parent="1" source="mTnZ1Y2PA8hC00HLISH9-143" target="mTnZ1Y2PA8hC00HLISH9-153" edge="1">
          <mxGeometry width="50" height="50" relative="1" as="geometry">
            <mxPoint x="-634" y="-2234" as="sourcePoint" />
            <mxPoint x="-740" y="-2380" as="targetPoint" />
          </mxGeometry>
        </mxCell>
        <mxCell id="mTnZ1Y2PA8hC00HLISH9-153" value="&lt;font style=&quot;font-size: 20px;&quot;&gt;Wishlist&lt;/font&gt;" style="rounded=0;whiteSpace=wrap;html=1;" parent="1" vertex="1">
          <mxGeometry x="-800" y="-2400" width="240" height="60" as="geometry" />
        </mxCell>
        <mxCell id="mTnZ1Y2PA8hC00HLISH9-156" value="&lt;font style=&quot;font-size: 20px;&quot;&gt;Notebooks&lt;/font&gt;" style="whiteSpace=wrap;html=1;rounded=0;" parent="1" vertex="1">
          <mxGeometry x="-2260" y="-2730" width="120" height="60" as="geometry" />
        </mxCell>
        <mxCell id="mTnZ1Y2PA8hC00HLISH9-158" value="&lt;font style=&quot;font-size: 20px;&quot;&gt;Accessories&lt;/font&gt;" style="whiteSpace=wrap;html=1;rounded=0;" parent="1" vertex="1">
          <mxGeometry x="-2110" y="-2730" width="120" height="60" as="geometry" />
        </mxCell>
        <mxCell id="mTnZ1Y2PA8hC00HLISH9-160" value="&lt;font style=&quot;font-size: 20px;&quot;&gt;Camera, photo&lt;/font&gt;" style="whiteSpace=wrap;html=1;rounded=0;" parent="1" vertex="1">
          <mxGeometry x="-1950" y="-2730" width="120" height="60" as="geometry" />
        </mxCell>
        <mxCell id="mTnZ1Y2PA8hC00HLISH9-162" value="&lt;font style=&quot;font-size: 20px;&quot;&gt;Cell phones&lt;/font&gt;" style="whiteSpace=wrap;html=1;rounded=0;" parent="1" vertex="1">
          <mxGeometry x="-1810" y="-2730" width="120" height="60" as="geometry" />
        </mxCell>
        <mxCell id="mTnZ1Y2PA8hC00HLISH9-164" value="&lt;span style=&quot;font-size: 20px;&quot;&gt;Desktops&lt;/span&gt;" style="rounded=0;whiteSpace=wrap;html=1;" parent="1" vertex="1">
          <mxGeometry x="-2410" y="-2730" width="120" height="60" as="geometry" />
        </mxCell>
        <mxCell id="pquUAAv5biE2Y6WgdZmE-1" value="" style="endArrow=classic;html=1;rounded=0;" edge="1" parent="1">
          <mxGeometry width="50" height="50" relative="1" as="geometry">
            <mxPoint x="-1660" y="-1740" as="sourcePoint" />
            <mxPoint x="-1610" y="-1790" as="targetPoint" />
          </mxGeometry>
        </mxCell>
        <mxCell id="pquUAAv5biE2Y6WgdZmE-2" value="" style="endArrow=classic;html=1;rounded=0;exitX=0.421;exitY=1.004;exitDx=0;exitDy=0;exitPerimeter=0;" edge="1" parent="1" source="pquUAAv5biE2Y6WgdZmE-3" target="pquUAAv5biE2Y6WgdZmE-4">
          <mxGeometry width="50" height="50" relative="1" as="geometry">
            <mxPoint x="-1660" y="-1740" as="sourcePoint" />
            <mxPoint x="-1130" y="-1200" as="targetPoint" />
          </mxGeometry>
        </mxCell>
        <mxCell id="pquUAAv5biE2Y6WgdZmE-4" value="&lt;div class=&quot;column information&quot; style=&quot;margin: 0px; padding: 0px; border: 0px; outline: 0px; font-size: 12px; vertical-align: baseline; background: transparent; float: left; text-align: left; width: 225px; color: rgb(92, 91, 91); font-family: arial, verdana, helvetica, sans-serif; font-style: normal; font-variant-ligatures: normal; font-variant-caps: normal; font-weight: 400; letter-spacing: normal; orphans: 2; text-indent: 0px; text-transform: none; widows: 2; word-spacing: 0px; -webkit-text-stroke-width: 0px; text-decoration-thickness: initial; text-decoration-style: initial; text-decoration-color: initial;&quot;&gt;&lt;h3 style=&quot;margin: 0px; padding: 0px; border: 0px; outline: 0px; font-size: 13px; vertical-align: baseline; background: transparent; font-family: arial, helvetica, sans-serif; color: rgb(51, 51, 51); text-transform: uppercase; font-weight: 700;&quot;&gt;INFORMATION&lt;/h3&gt;&lt;ul style=&quot;margin: 13px 0px; padding: 0px; border: 0px; outline: 0px; font-size: 12px; vertical-align: baseline; background: transparent; list-style: outside none none;&quot;&gt;&lt;li style=&quot;margin: 0px 0px 3px; padding: 0px; border: 0px; outline: 0px; font-size: 12px; vertical-align: baseline; background: transparent; line-height: 18px;&quot;&gt;&lt;a href=&quot;https://demowebshop.tricentis.com/sitemap&quot; style=&quot;margin: 0px; padding: 0px; font-size: 12px; vertical-align: baseline; background: transparent; color: rgb(85, 85, 85); text-decoration: none; font-weight: normal;&quot;&gt;Sitemap&lt;/a&gt;&lt;/li&gt;&lt;li style=&quot;margin: 0px 0px 3px; padding: 0px; border: 0px; outline: 0px; font-size: 12px; vertical-align: baseline; background: transparent; line-height: 18px;&quot;&gt;&lt;a href=&quot;https://demowebshop.tricentis.com/shipping-returns&quot; style=&quot;margin: 0px; padding: 0px; font-size: 12px; vertical-align: baseline; background: transparent; color: rgb(85, 85, 85); text-decoration: none; font-weight: normal;&quot;&gt;Shipping &amp;amp; Returns&lt;/a&gt;&lt;/li&gt;&lt;li style=&quot;margin: 0px 0px 3px; padding: 0px; border: 0px; outline: 0px; font-size: 12px; vertical-align: baseline; background: transparent; line-height: 18px;&quot;&gt;&lt;a href=&quot;https://demowebshop.tricentis.com/privacy-policy&quot; style=&quot;margin: 0px; padding: 0px; font-size: 12px; vertical-align: baseline; background: transparent; color: rgb(85, 85, 85); text-decoration: none; font-weight: normal;&quot;&gt;Privacy Notice&lt;/a&gt;&lt;/li&gt;&lt;li style=&quot;margin: 0px 0px 3px; padding: 0px; border: 0px; outline: 0px; font-size: 12px; vertical-align: baseline; background: transparent; line-height: 18px;&quot;&gt;&lt;a href=&quot;https://demowebshop.tricentis.com/conditions-of-use&quot; style=&quot;margin: 0px; padding: 0px; font-size: 12px; vertical-align: baseline; background: transparent; color: rgb(85, 85, 85); text-decoration: none; font-weight: normal;&quot;&gt;Conditions of Use&lt;/a&gt;&lt;/li&gt;&lt;li style=&quot;margin: 0px 0px 3px; padding: 0px; border: 0px; outline: 0px; font-size: 12px; vertical-align: baseline; background: transparent; line-height: 18px;&quot;&gt;&lt;a href=&quot;https://demowebshop.tricentis.com/about-us&quot; style=&quot;margin: 0px; padding: 0px; font-size: 12px; vertical-align: baseline; background: transparent; color: rgb(85, 85, 85); text-decoration: none; font-weight: normal;&quot;&gt;About us&lt;/a&gt;&lt;/li&gt;&lt;li style=&quot;margin: 0px 0px 3px; padding: 0px; border: 0px; outline: 0px; font-size: 12px; vertical-align: baseline; background: transparent; line-height: 18px;&quot;&gt;&lt;a href=&quot;https://demowebshop.tricentis.com/contactus&quot; style=&quot;margin: 0px; padding: 0px; font-size: 12px; vertical-align: baseline; background: transparent; color: rgb(85, 85, 85); text-decoration: none; font-weight: normal;&quot;&gt;Contact us&lt;/a&gt;&lt;/li&gt;&lt;/ul&gt;&lt;/div&gt;&lt;div class=&quot;column customer-service&quot; style=&quot;margin: 0px; padding: 0px; border: 0px; outline: 0px; font-size: 12px; vertical-align: baseline; background: transparent; float: left; text-align: left; width: 225px; color: rgb(92, 91, 91); font-family: arial, verdana, helvetica, sans-serif; font-style: normal; font-variant-ligatures: normal; font-variant-caps: normal; font-weight: 400; letter-spacing: normal; orphans: 2; text-indent: 0px; text-transform: none; widows: 2; word-spacing: 0px; -webkit-text-stroke-width: 0px; text-decoration-thickness: initial; text-decoration-style: initial; text-decoration-color: initial;&quot;&gt;&lt;h3 style=&quot;margin: 0px; padding: 0px; border: 0px; outline: 0px; font-size: 13px; vertical-align: baseline; background: transparent; font-family: arial, helvetica, sans-serif; color: rgb(51, 51, 51); text-transform: uppercase; font-weight: 700;&quot;&gt;CUSTOMER SERVICE&lt;/h3&gt;&lt;ul style=&quot;margin: 13px 0px; padding: 0px; border: 0px; outline: 0px; font-size: 12px; vertical-align: baseline; background: transparent; list-style: outside none none;&quot;&gt;&lt;li style=&quot;margin: 0px 0px 3px; padding: 0px; border: 0px; outline: 0px; font-size: 12px; vertical-align: baseline; background: transparent; line-height: 18px;&quot;&gt;&lt;a href=&quot;https://demowebshop.tricentis.com/search&quot; style=&quot;margin: 0px; padding: 0px; font-size: 12px; vertical-align: baseline; background: transparent; color: rgb(85, 85, 85); text-decoration: none; font-weight: normal;&quot;&gt;Search&lt;/a&gt;&lt;/li&gt;&lt;li style=&quot;margin: 0px 0px 3px; padding: 0px; border: 0px; outline: 0px; font-size: 12px; vertical-align: baseline; background: transparent; line-height: 18px;&quot;&gt;&lt;a href=&quot;https://demowebshop.tricentis.com/news&quot; style=&quot;margin: 0px; padding: 0px; font-size: 12px; vertical-align: baseline; background: transparent; color: rgb(85, 85, 85); text-decoration: none; font-weight: normal;&quot;&gt;News&lt;/a&gt;&lt;/li&gt;&lt;li style=&quot;margin: 0px 0px 3px; padding: 0px; border: 0px; outline: 0px; font-size: 12px; vertical-align: baseline; background: transparent; line-height: 18px;&quot;&gt;&lt;a href=&quot;https://demowebshop.tricentis.com/blog&quot; style=&quot;margin: 0px; padding: 0px; font-size: 12px; vertical-align: baseline; background: transparent; color: rgb(85, 85, 85); text-decoration: none; font-weight: normal;&quot;&gt;Blog&lt;/a&gt;&lt;/li&gt;&lt;li style=&quot;margin: 0px 0px 3px; padding: 0px; border: 0px; outline: 0px; font-size: 12px; vertical-align: baseline; background: transparent; line-height: 18px;&quot;&gt;&lt;a href=&quot;https://demowebshop.tricentis.com/recentlyviewedproducts&quot; style=&quot;margin: 0px; padding: 0px; font-size: 12px; vertical-align: baseline; background: transparent; color: rgb(85, 85, 85); text-decoration: none; font-weight: normal;&quot;&gt;Recently viewed products&lt;/a&gt;&lt;/li&gt;&lt;li style=&quot;margin: 0px 0px 3px; padding: 0px; border: 0px; outline: 0px; font-size: 12px; vertical-align: baseline; background: transparent; line-height: 18px;&quot;&gt;&lt;a href=&quot;https://demowebshop.tricentis.com/compareproducts&quot; style=&quot;margin: 0px; padding: 0px; font-size: 12px; vertical-align: baseline; background: transparent; color: rgb(85, 85, 85); text-decoration: none; font-weight: normal;&quot;&gt;Compare products list&lt;/a&gt;&lt;/li&gt;&lt;li style=&quot;margin: 0px 0px 3px; padding: 0px; border: 0px; outline: 0px; font-size: 12px; vertical-align: baseline; background: transparent; line-height: 18px;&quot;&gt;&lt;a href=&quot;https://demowebshop.tricentis.com/newproducts&quot; style=&quot;margin: 0px; padding: 0px; font-size: 12px; vertical-align: baseline; background: transparent; color: rgb(85, 85, 85); text-decoration: none; font-weight: normal;&quot;&gt;New products&lt;/a&gt;&lt;/li&gt;&lt;/ul&gt;&lt;/div&gt;&lt;div class=&quot;column my-account&quot; style=&quot;margin: 0px; padding: 0px; border: 0px; outline: 0px; font-size: 12px; vertical-align: baseline; background: transparent; float: left; text-align: left; width: 225px; color: rgb(92, 91, 91); font-family: arial, verdana, helvetica, sans-serif; font-style: normal; font-variant-ligatures: normal; font-variant-caps: normal; font-weight: 400; letter-spacing: normal; orphans: 2; text-indent: 0px; text-transform: none; widows: 2; word-spacing: 0px; -webkit-text-stroke-width: 0px; text-decoration-thickness: initial; text-decoration-style: initial; text-decoration-color: initial;&quot;&gt;&lt;h3 style=&quot;margin: 0px; padding: 0px; border: 0px; outline: 0px; font-size: 13px; vertical-align: baseline; background: transparent; font-family: arial, helvetica, sans-serif; color: rgb(51, 51, 51); text-transform: uppercase; font-weight: 700;&quot;&gt;MY ACCOUNT&lt;/h3&gt;&lt;ul style=&quot;margin: 13px 0px; padding: 0px; border: 0px; outline: 0px; font-size: 12px; vertical-align: baseline; background: transparent; list-style: outside none none;&quot;&gt;&lt;li style=&quot;margin: 0px 0px 3px; padding: 0px; border: 0px; outline: 0px; font-size: 12px; vertical-align: baseline; background: transparent; line-height: 18px;&quot;&gt;&lt;a href=&quot;https://demowebshop.tricentis.com/customer/info&quot; class=&quot;account&quot; style=&quot;margin: 0px; padding: 0px; font-size: 12px; vertical-align: baseline; background: transparent; color: rgb(85, 85, 85); text-decoration: none; font-weight: normal;&quot;&gt;My account&lt;/a&gt;&lt;/li&gt;&lt;li style=&quot;margin: 0px 0px 3px; padding: 0px; border: 0px; outline: 0px; font-size: 12px; vertical-align: baseline; background: transparent; line-height: 18px;&quot;&gt;&lt;a href=&quot;https://demowebshop.tricentis.com/customer/orders&quot; style=&quot;margin: 0px; padding: 0px; font-size: 12px; vertical-align: baseline; background: transparent; color: rgb(85, 85, 85); text-decoration: none; font-weight: normal;&quot;&gt;Orders&lt;/a&gt;&lt;/li&gt;&lt;li style=&quot;margin: 0px 0px 3px; padding: 0px; border: 0px; outline: 0px; font-size: 12px; vertical-align: baseline; background: transparent; line-height: 18px;&quot;&gt;&lt;a href=&quot;https://demowebshop.tricentis.com/customer/addresses&quot; class=&quot;&quot; style=&quot;margin: 0px; padding: 0px; font-size: 12px; vertical-align: baseline; background: transparent; color: rgb(85, 85, 85); text-decoration: none; font-weight: normal;&quot;&gt;Addresses&lt;/a&gt;&lt;/li&gt;&lt;li style=&quot;margin: 0px 0px 3px; padding: 0px; border: 0px; outline: 0px; font-size: 12px; vertical-align: baseline; background: transparent; line-height: 18px;&quot;&gt;&lt;a href=&quot;https://demowebshop.tricentis.com/cart&quot; class=&quot;ico-cart&quot; style=&quot;margin: 0px; padding: 0px; font-size: 12px; vertical-align: baseline; background: transparent; color: rgb(85, 85, 85); text-decoration: none; font-weight: normal;&quot;&gt;Shopping cart&lt;/a&gt;&lt;/li&gt;&lt;li style=&quot;margin: 0px 0px 3px; padding: 0px; border: 0px; outline: 0px; font-size: 12px; vertical-align: baseline; background: transparent; line-height: 18px;&quot;&gt;&lt;a href=&quot;https://demowebshop.tricentis.com/wishlist&quot; class=&quot;ico-wishlist&quot; style=&quot;margin: 0px; padding: 0px; font-size: 12px; vertical-align: baseline; background: transparent; color: rgb(85, 85, 85); text-decoration: none; font-weight: normal;&quot;&gt;Wishlist&lt;/a&gt;&lt;/li&gt;&lt;/ul&gt;&lt;/div&gt;&lt;div class=&quot;column follow-us&quot; style=&quot;margin: 0px; padding: 0px; border: 0px; outline: 0px; font-size: 12px; vertical-align: baseline; background: transparent; float: left; text-align: left; width: 225px; color: rgb(92, 91, 91); font-family: arial, verdana, helvetica, sans-serif; font-style: normal; font-variant-ligatures: normal; font-variant-caps: normal; font-weight: 400; letter-spacing: normal; orphans: 2; text-indent: 0px; text-transform: none; widows: 2; word-spacing: 0px; -webkit-text-stroke-width: 0px; text-decoration-thickness: initial; text-decoration-style: initial; text-decoration-color: initial;&quot;&gt;&lt;h3 style=&quot;margin: 0px; padding: 0px; border: 0px; outline: 0px; font-size: 13px; vertical-align: baseline; background: transparent; font-family: arial, helvetica, sans-serif; color: rgb(51, 51, 51); text-transform: uppercase; font-weight: 700;&quot;&gt;FOLLOW US&lt;/h3&gt;&lt;ul style=&quot;margin: 13px 0px; padding: 0px; border: 0px; outline: 0px; font-size: 12px; vertical-align: baseline; background: transparent; list-style: outside none none;&quot;&gt;&lt;li class=&quot;facebook&quot; style=&quot;margin: 0px 0px 3px; padding: 0px; border: 0px; outline: 0px; font-size: 12px; vertical-align: baseline; background: transparent; line-height: 18px;&quot;&gt;&lt;a href=&quot;http://www.facebook.com/nopCommerce&quot; target=&quot;_blank&quot; style=&quot;margin: 0px; padding: 0px; font-size: 12px; vertical-align: baseline; background: transparent; color: rgb(85, 85, 85); text-decoration: none; font-weight: normal;&quot;&gt;Facebook&lt;/a&gt;&lt;/li&gt;&lt;li class=&quot;twitter&quot; style=&quot;margin: 0px 0px 3px; padding: 0px; border: 0px; outline: 0px; font-size: 12px; vertical-align: baseline; background: transparent; line-height: 18px;&quot;&gt;&lt;a href=&quot;https://twitter.com/nopCommerce&quot; target=&quot;_blank&quot; style=&quot;margin: 0px; padding: 0px; font-size: 12px; vertical-align: baseline; background: transparent; color: rgb(85, 85, 85); text-decoration: none; font-weight: normal;&quot;&gt;Twitter&lt;/a&gt;&lt;/li&gt;&lt;li class=&quot;rss&quot; style=&quot;margin: 0px 0px 3px; padding: 0px; border: 0px; outline: 0px; font-size: 12px; vertical-align: baseline; background: transparent; line-height: 18px;&quot;&gt;&lt;a href=&quot;https://demowebshop.tricentis.com/news/rss/1&quot; style=&quot;margin: 0px; padding: 0px; font-size: 12px; vertical-align: baseline; background: transparent; color: rgb(85, 85, 85); text-decoration: none; font-weight: normal;&quot;&gt;RSS&lt;/a&gt;&lt;/li&gt;&lt;li class=&quot;youtube&quot; style=&quot;margin: 0px 0px 3px; padding: 0px; border: 0px; outline: 0px; font-size: 12px; vertical-align: baseline; background: transparent; line-height: 18px;&quot;&gt;&lt;a href=&quot;http://www.youtube.com/user/nopCommerce&quot; target=&quot;_blank&quot; style=&quot;margin: 0px; padding: 0px; font-size: 12px; vertical-align: baseline; background: transparent; color: rgb(85, 85, 85); text-decoration: none; font-weight: normal;&quot;&gt;YouTube&lt;/a&gt;&lt;/li&gt;&lt;li class=&quot;google-plus&quot; style=&quot;margin: 0px 0px 3px; padding: 0px; border: 0px; outline: 0px; font-size: 12px; vertical-align: baseline; background: transparent; line-height: 18px;&quot;&gt;&lt;a href=&quot;https://plus.google.com/+nopcommerce&quot; target=&quot;_blank&quot; style=&quot;margin: 0px; padding: 0px; font-size: 12px; vertical-align: baseline; background: transparent; color: rgb(85, 85, 85); text-decoration: none; font-weight: normal;&quot;&gt;Google+&lt;/a&gt;&lt;/li&gt;&lt;/ul&gt;&lt;/div&gt;" style="text;whiteSpace=wrap;html=1;" vertex="1" parent="1">
          <mxGeometry x="-1570" y="-1110" width="1120" height="330" as="geometry" />
        </mxCell>
        <mxCell id="pquUAAv5biE2Y6WgdZmE-5" value="" style="endArrow=classic;html=1;rounded=0;exitX=0.01;exitY=0.915;exitDx=0;exitDy=0;exitPerimeter=0;entryX=0.082;entryY=-0.011;entryDx=0;entryDy=0;entryPerimeter=0;" edge="1" parent="1" source="pquUAAv5biE2Y6WgdZmE-3" target="pquUAAv5biE2Y6WgdZmE-4">
          <mxGeometry width="50" height="50" relative="1" as="geometry">
            <mxPoint x="-1320" y="-1110" as="sourcePoint" />
            <mxPoint x="-1480" y="-980" as="targetPoint" />
          </mxGeometry>
        </mxCell>
        <mxCell id="pquUAAv5biE2Y6WgdZmE-6" value="" style="endArrow=classic;html=1;rounded=0;exitX=0.205;exitY=1;exitDx=0;exitDy=0;exitPerimeter=0;" edge="1" parent="1" source="pquUAAv5biE2Y6WgdZmE-3">
          <mxGeometry width="50" height="50" relative="1" as="geometry">
            <mxPoint x="-1250" y="-1130" as="sourcePoint" />
            <mxPoint x="-1220" y="-1120" as="targetPoint" />
          </mxGeometry>
        </mxCell>
        <mxCell id="pquUAAv5biE2Y6WgdZmE-7" value="" style="endArrow=classic;html=1;rounded=0;exitX=0.421;exitY=1.004;exitDx=0;exitDy=0;exitPerimeter=0;" edge="1" parent="1" source="mTnZ1Y2PA8hC00HLISH9-3" target="pquUAAv5biE2Y6WgdZmE-3">
          <mxGeometry width="50" height="50" relative="1" as="geometry">
            <mxPoint x="-896" y="-1790" as="sourcePoint" />
            <mxPoint x="-1130" y="-1200" as="targetPoint" />
            <Array as="points">
              <mxPoint x="-950" y="-1600" />
            </Array>
          </mxGeometry>
        </mxCell>
        <mxCell id="pquUAAv5biE2Y6WgdZmE-3" value="&lt;font style=&quot;font-size: 20px;&quot;&gt;FOOTER&lt;/font&gt;" style="rounded=1;whiteSpace=wrap;html=1;" vertex="1" parent="1">
          <mxGeometry x="-1226" y="-1440" width="260" height="160" as="geometry" />
        </mxCell>
        <mxCell id="pquUAAv5biE2Y6WgdZmE-9" value="" style="endArrow=classic;html=1;rounded=0;entryX=0.634;entryY=0.003;entryDx=0;entryDy=0;entryPerimeter=0;exitX=0.982;exitY=0.958;exitDx=0;exitDy=0;exitPerimeter=0;" edge="1" parent="1" source="pquUAAv5biE2Y6WgdZmE-3" target="pquUAAv5biE2Y6WgdZmE-4">
          <mxGeometry width="50" height="50" relative="1" as="geometry">
            <mxPoint x="-930" y="-1170" as="sourcePoint" />
            <mxPoint x="-1090" y="-1040" as="targetPoint" />
          </mxGeometry>
        </mxCell>
      </root>
    </mxGraphModel>
  </diagram>
</mxfile>
